<?xml version="1.0" encoding="UTF-8" standalone="no"?>
<!-- Created with Inkscape (http://www.inkscape.org/) -->

<svg
   xmlns:dc="http://purl.org/dc/elements/1.1/"
   xmlns:cc="http://creativecommons.org/ns#"
   xmlns:rdf="http://www.w3.org/1999/02/22-rdf-syntax-ns#"
   xmlns:svg="http://www.w3.org/2000/svg"
   xmlns="http://www.w3.org/2000/svg"
   xmlns:sodipodi="http://sodipodi.sourceforge.net/DTD/sodipodi-0.dtd"
   xmlns:inkscape="http://www.inkscape.org/namespaces/inkscape"
   width="398.50772"
   height="245.62117"
   id="svg2"
   version="1.1"
   inkscape:version="0.48.4 r9939"
   sodipodi:docname="ship.svg">
  <defs
     id="defs4" />
  <sodipodi:namedview
     id="base"
     pagecolor="#ffffff"
     bordercolor="#666666"
     borderopacity="1.0"
     inkscape:pageopacity="0.0"
     inkscape:pageshadow="2"
     inkscape:zoom="0.98994949"
     inkscape:cx="315.71508"
     inkscape:cy="137.05999"
     inkscape:document-units="px"
     inkscape:current-layer="layer1"
     showgrid="false"
     inkscape:window-width="1600"
     inkscape:window-height="837"
     inkscape:window-x="-8"
     inkscape:window-y="-8"
     inkscape:window-maximized="1"
     fit-margin-top="0"
     fit-margin-left="0"
     fit-margin-right="0"
     fit-margin-bottom="0" />
  <metadata
     id="metadata7">
    <rdf:RDF>
      <cc:Work
         rdf:about="">
        <dc:format>image/svg+xml</dc:format>
        <dc:type
           rdf:resource="http://purl.org/dc/dcmitype/StillImage" />
        <dc:title></dc:title>
      </cc:Work>
    </rdf:RDF>
  </metadata>
  <g
     inkscape:label="Layer 1"
     inkscape:groupmode="layer"
     id="layer1"
     transform="translate(-145.98619,-370.18013)">
    <g
       id="g3908">
      <path
         sodipodi:nodetypes="cccccc"
         inkscape:connector-curvature="0"
         id="path3844"
         d="m 260.99617,502.09646 6.90633,-41.43804 c 19.71166,-1.35282 37.79283,-5.64053 50.46941,-19.65651 l 16.46896,55.25072 -18.59399,7.96885 z"
         style="fill:#000000;stroke:#000000;stroke-width:0.52591747px;stroke-linecap:butt;stroke-linejoin:miter;stroke-opacity:1" />
      <path
         inkscape:connector-curvature="0"
         id="path3799"
         d="m 238.15212,539.81569 12.75017,-42.50055 57.907,0 4.25005,-22.31278 73.31345,-5.84383 31.34415,66.93836 z"
         style="fill:#ffffff;stroke:#000000;stroke-width:4.20733976;stroke-linecap:butt;stroke-linejoin:miter;stroke-miterlimit:4;stroke-opacity:1;stroke-dasharray:none" />
      <path
         sodipodi:nodetypes="ccccccccccccc"
         inkscape:connector-curvature="0"
         id="path2985"
         d="m 153.15102,515.37788 71.18842,3.18753 c 2.65705,11.00374 10.80409,15.73319 23.37531,15.40646 l 151.93946,0.53125 c 11.71791,-2.18592 24.67473,-11.35821 20.71902,-36.12546 l 123.2516,-13.81268 c -41.69367,33.68431 -50.33248,74.83794 -65.18901,109.27225 -18.77107,10.49334 -37.16649,10.69738 -55.93757,0.1556 -16.02746,13.56019 -37.88754,7.60751 -56.31322,0.53126 -13.40895,13.67536 -43.87246,9.26238 -60.56329,-0.53126 -19.2054,14.47011 -40.9138,9.32359 -63.75082,-2.12502 -20.72446,18.44412 -33.03903,2.35189 -51.00066,-0.53126 2.1461,-41.80801 -66.03537,-21.78129 -37.71924,-75.95867 z"
         style="fill:#000000;stroke:#000000;stroke-width:0.52591747px;stroke-linecap:butt;stroke-linejoin:miter;stroke-opacity:1" />
      <path
         transform="matrix(0.52591747,0,0,0.52591747,100.76748,431.14903)"
         d="m 297.14287,241.59448 a 16.071428,16.071428 0 1 1 -32.14286,0 16.071428,16.071428 0 1 1 32.14286,0 z"
         sodipodi:ry="16.071428"
         sodipodi:rx="16.071428"
         sodipodi:cy="241.59448"
         sodipodi:cx="281.07144"
         id="path2987"
         style="color:#000000;fill:#ffffff;fill-opacity:1;fill-rule:nonzero;stroke:#000000;stroke-width:1;stroke-linecap:butt;stroke-linejoin:miter;stroke-miterlimit:4;stroke-opacity:1;stroke-dasharray:none;stroke-dashoffset:0;marker:none;visibility:visible;display:inline;overflow:visible;enable-background:accumulate"
         sodipodi:type="arc" />
      <path
         transform="matrix(0.52591747,0,0,0.52591747,153.1556,431.61591)"
         d="m 297.14287,241.59448 a 16.071428,16.071428 0 1 1 -32.14286,0 16.071428,16.071428 0 1 1 32.14286,0 z"
         sodipodi:ry="16.071428"
         sodipodi:rx="16.071428"
         sodipodi:cy="241.59448"
         sodipodi:cx="281.07144"
         id="path2987-1"
         style="color:#000000;fill:#ffffff;fill-opacity:1;fill-rule:nonzero;stroke:#000000;stroke-width:1;stroke-linecap:butt;stroke-linejoin:miter;stroke-miterlimit:4;stroke-opacity:1;stroke-dasharray:none;stroke-dashoffset:0;marker:none;visibility:visible;display:inline;overflow:visible;enable-background:accumulate"
         sodipodi:type="arc" />
      <path
         transform="matrix(0.52591747,0,0,0.52591747,204.24472,431.24026)"
         d="m 297.14287,241.59448 a 16.071428,16.071428 0 1 1 -32.14286,0 16.071428,16.071428 0 1 1 32.14286,0 z"
         sodipodi:ry="16.071428"
         sodipodi:rx="16.071428"
         sodipodi:cy="241.59448"
         sodipodi:cx="281.07144"
         id="path2987-7"
         style="color:#000000;fill:#ffffff;fill-opacity:1;fill-rule:nonzero;stroke:#000000;stroke-width:1;stroke-linecap:butt;stroke-linejoin:miter;stroke-miterlimit:4;stroke-opacity:1;stroke-dasharray:none;stroke-dashoffset:0;marker:none;visibility:visible;display:inline;overflow:visible;enable-background:accumulate"
         sodipodi:type="arc" />
      <path
         transform="matrix(0.52591747,0,0,0.52591747,322.95181,395.17734)"
         d="m 297.14287,241.59448 a 16.071428,16.071428 0 1 1 -32.14286,0 16.071428,16.071428 0 1 1 32.14286,0 z"
         sodipodi:ry="16.071428"
         sodipodi:rx="16.071428"
         sodipodi:cy="241.59448"
         sodipodi:cx="281.07144"
         id="path2987-4"
         style="color:#000000;fill:#ffffff;fill-opacity:1;fill-rule:nonzero;stroke:#000000;stroke-width:1;stroke-linecap:butt;stroke-linejoin:miter;stroke-miterlimit:4;stroke-opacity:1;stroke-dasharray:none;stroke-dashoffset:0;marker:none;visibility:visible;display:inline;overflow:visible;enable-background:accumulate"
         sodipodi:type="arc" />
      <path
         sodipodi:nodetypes="ccsscscscscsccscccscccscccscccssc"
         inkscape:connector-curvature="0"
         id="path3021"
         d="m 181.28216,595.78702 -0.24652,2.61315 c 7.14433,0.70426 20.51819,9.70463 32.00371,13.06226 5.74276,1.67882 9.21065,2.41107 14.81671,1.57508 5.33942,-0.79622 10.65942,-6.04313 14.90914,-11.05452 8.90268,4.15968 18.07312,11.42606 27.8652,13.30302 9.91364,1.90026 25.77882,-1.3282 34.88333,-11.80745 7.8065,4.63706 17.55113,10.72343 28.36267,11.397 10.87717,0.67767 22.80432,-4.15198 32.97245,-11.75856 9.14965,4.9688 18.76266,10.60578 28.37911,11.23131 9.64531,0.6274 19.30698,-3.79521 26.66144,-9.83435 9.94276,1.99632 19.29439,8.62132 29.77341,9.44257 10.6749,0.8366 24.10465,-5.00366 35.57142,-14.4694 l -1.90645,-1.82428 c -10.23024,7.94865 -22.70099,11.93239 -32.80368,11.14063 -10.10269,-0.79176 -20.21041,-4.97994 -30.70044,-7.00128 l -0.62452,-0.11504 -0.47661,0.41087 c -6.83048,5.8584 -15.55669,7.97267 -24.93178,7.36285 -9.37509,-0.60983 -19.34789,-3.96829 -28.41598,-9.00634 l -0.756,-0.42731 -0.69027,0.52592 c -9.77843,7.58561 -20.87727,9.96331 -31.48931,9.30216 -10.61204,-0.66114 -20.71349,-4.39674 -28.25163,-9.00633 l -0.69027,-0.41088 -0.69026,0.41088 c -14.31718,8.73975 -24.94795,9.69952 -34.48047,7.87232 -9.53251,-1.8272 -18.00901,-6.60255 -27.56136,-9.51581 l -0.85461,-0.26296 -0.55879,0.7067 c -3.99946,5.05289 -8.5888,7.38434 -13.62455,8.13528 -5.03576,0.75095 -10.545,-0.13759 -16.08979,-1.75853 -11.08958,-3.24188 -22.08181,-9.4234 -30.3553,-10.23896 z"
         style="font-size:medium;font-style:normal;font-variant:normal;font-weight:normal;font-stretch:normal;text-indent:0;text-align:start;text-decoration:none;line-height:normal;letter-spacing:normal;word-spacing:normal;text-transform:none;direction:ltr;block-progression:tb;writing-mode:lr-tb;text-anchor:start;baseline-shift:baseline;color:#000000;fill:#000000;fill-opacity:1;stroke:none;stroke-width:5;marker:none;visibility:visible;display:inline;overflow:visible;enable-background:accumulate;font-family:Sans;-inkscape-font-specification:Sans" />
      <path
         transform="matrix(0.52591747,0,0,0.52591747,125.43815,389.06719)"
         d="m 297.14287,241.59448 a 16.071428,16.071428 0 1 1 -32.14286,0 16.071428,16.071428 0 1 1 32.14286,0 z"
         sodipodi:ry="16.071428"
         sodipodi:rx="16.071428"
         sodipodi:cy="241.59448"
         sodipodi:cx="281.07144"
         id="path2987-1-0"
         style="color:#000000;fill:#000000;fill-opacity:1;fill-rule:nonzero;stroke:#000000;stroke-width:1;stroke-linecap:butt;stroke-linejoin:miter;stroke-miterlimit:4;stroke-opacity:1;stroke-dasharray:none;stroke-dashoffset:0;marker:none;visibility:visible;display:inline;overflow:visible;enable-background:accumulate"
         sodipodi:type="arc" />
      <path
         transform="matrix(0.52591747,0,0,0.52591747,163.21739,388.53593)"
         d="m 297.14287,241.59448 a 16.071428,16.071428 0 1 1 -32.14286,0 16.071428,16.071428 0 1 1 32.14286,0 z"
         sodipodi:ry="16.071428"
         sodipodi:rx="16.071428"
         sodipodi:cy="241.59448"
         sodipodi:cx="281.07144"
         id="path2987-1-0-9"
         style="color:#000000;fill:#000000;fill-opacity:1;fill-rule:nonzero;stroke:#000000;stroke-width:1;stroke-linecap:butt;stroke-linejoin:miter;stroke-miterlimit:4;stroke-opacity:1;stroke-dasharray:none;stroke-dashoffset:0;marker:none;visibility:visible;display:inline;overflow:visible;enable-background:accumulate"
         sodipodi:type="arc" />
      <path
         sodipodi:nodetypes="cccccccccc"
         inkscape:connector-curvature="0"
         id="path3873"
         d="m 234.96458,380.43863 c 10.69205,-9.16692 29.22848,0.0408 28.83795,10.41061 9.50774,0.92098 10.48868,14.37538 4.09997,21.99606 10.21975,-4.29485 10.89293,4.32026 11.1564,7.96885 8.19352,8.27147 -2.93633,21.5318 -13.46925,16.87132 -4.93864,7.63846 -23.86541,8.37763 -29.56256,-3.5899 -11.65586,2.40985 -13.9905,-10.58217 -10.62514,-17.00022 -9.99839,5.35867 -32.26178,5.50476 -27.0941,-15.40644 -7.8216,2.01271 -7.49124,-18.51391 6.90634,-15.93771 -1.43588,-13.83129 22.32856,-20.55583 29.75039,-5.31257 z"
         style="fill:none;stroke:#000000;stroke-width:3.1555047;stroke-linecap:butt;stroke-linejoin:miter;stroke-miterlimit:4;stroke-opacity:1;stroke-dasharray:none" />
      <path
         sodipodi:nodetypes="csssc"
         inkscape:connector-curvature="0"
         id="rect3901"
         d="m 404.7382,510.17019 -48.22001,3.37891 c -8.15698,0.57158 -15.18223,-5.64501 -15.74988,-13.91281 -0.56765,-8.26781 5.54282,-15.37474 13.7006,-15.93483 l 37.4084,-2.56839"
         style="color:#000000;fill:none;fill-opacity:1;fill-rule:nonzero;stroke:#000000;stroke-width:4.37914324000000030;stroke-linecap:butt;stroke-linejoin:miter;stroke-miterlimit:4;stroke-opacity:1;stroke-dashoffset:0;marker:none;visibility:visible;display:inline;overflow:visible;enable-background:accumulate" />
    </g>
  </g>
</svg>
